<svg width="147px" height="147px" viewBox="0 0 147 147" version="1.1" xmlns="http://www.w3.org/2000/svg" xmlns:xlink="http://www.w3.org/1999/xlink">
    <title>Shape</title>
    <g id="Page-1" stroke="none" stroke-width="1" fill="none" fill-rule="evenodd">
        <g id="ball" transform="translate(1.000000, 2.000000)" fill="#FFFFFF" stroke="#353535" stroke-width="3">
            <path d="M0.755600439,68.7898559 C0.461447712,57.1026637 6.24931992,45.6202671 15.9856589,39.0856987 C31.860023,27.0205242 52.8117006,21.5227275 72.5063091,24.8444798 C82.2587743,23.3396484 86.5749897,33.464021 83.1441427,41.2605618 C77.841076,46.4467156 68.6169206,41.514298 61.7488684,44.1966384 C39.4823061,47.0638303 17.5026355,56.7447167 2.45363465,73.7539977 C2.36183319,71.9343539 0.0322820927,70.7218648 0.755605241,68.7898559 L0.755600439,68.7898559 Z M1.02456011,79.1612559 C2.21022342,70.916686 10.4324049,66.6240453 16.1494955,61.6136906 C35.395897,47.9917762 59.5223418,42.5899446 82.8532508,43.5061152 C83.4313897,52.8997306 79.0109781,61.8656212 73.6925102,69.3072933 C66.389496,73.3788392 57.307605,68.7427258 49.5659838,72.4490828 C35.9880155,75.73585 20.8743128,79.8771499 12.1838123,91.7147801 C9.02599257,101.22077 2.35150336,91.5453249 1.83515612,85.950473 C1.10113817,83.7275818 1.20326466,81.4439602 1.02456011,79.1612607 L1.02456011,79.1612559 Z M4.7524652,50.9695323 C5.91465949,40.6253135 12.7323256,32.0721069 18.9867928,24.1902911 C26.0371705,15.790135 35.6350438,9.63190656 46.4207606,7.37593207 C54.9697123,5.14306162 63.7805546,4.21412643 72.5452752,3.27621566 C79.1922038,8.38163261 83.420522,17.2596212 82.3067977,25.6573281 C77.1442041,26.9649659 68.0161003,22.544002 61.0547195,23.6221074 C41.3116314,23.8080587 21.1283132,31.7208592 7.78595241,46.482954 C6.67504707,47.9074952 5.67623788,49.4172105 4.7524652,50.9695323 L4.7524652,50.9695323 Z M3.69420788,91.7754913 C11.0769793,97.6956679 11.3190219,107.956508 15.8560679,115.680006 C10.4175417,108.678746 5.63038517,100.49943 3.69420788,91.7754913 Z M9.5402508,97.4156436 C11.8562161,91.0342266 19.1165568,82.0656131 25.1741042,82.7325664 C27.595644,88.9699038 28.6447433,95.728309 32.5806184,101.351259 C43.1483908,120.750169 62.487415,137.531987 85.478477,138.060307 C89.2382888,138.822394 99.2055289,136.290501 98.8004615,137.338064 C89.1911634,142.057522 78.0658062,143.092411 67.4778256,142.712714 C47.814125,141.406887 28.2278957,131.962516 16.406675,115.98359 C13.0610023,110.244644 11.1591713,103.816107 9.5402508,97.4165512 L9.5402508,97.4156436 Z M25.72535,81.1449235 C31.0312069,78.6773437 40.9718997,71.1713347 44.9588813,77.2210927 C54.6889725,96.3853023 71.1388533,112.680495 91.390504,120.343291 C101.905076,123.851172 113.733644,123.795878 123.987253,119.418063 C119.710906,126.057759 112.634442,130.315967 105.96574,134.227096 C88.9220261,141.502031 68.3196896,137.557367 53.9592142,126.215425 C40.0600849,115.212407 29.1494977,99.4645413 25.7624096,81.8970607 L25.7423887,81.4901779 L25.72535,81.1449235 L25.72535,81.1449235 L25.72535,81.1449235 Z M32.8356273,12.1380732 C45.7346796,3.26579459 61.7189595,-0.895093975 77.3100432,0.210192626 C69.3291792,5.30409837 59.3148281,3.36891997 50.5634291,6.12691633 C44.4580312,7.45621753 38.3979433,9.24377691 32.8356273,12.1380732 L32.8356273,12.1380732 Z M43.973389,74.6511222 C52.4658027,70.6312447 62.1303756,70.696494 71.3083134,71.2465441 C76.8415369,79.8644573 80.7871079,89.8815409 89.3787379,96.0944151 C99.3913073,105.034925 113.961093,107.558683 126.577148,103.35756 C130.909658,100.430555 135.719731,102.300936 133.353677,108.106932 C130.505483,117.747037 120.392353,121.980772 111.124712,122.448371 C92.1643861,124.342326 74.8189127,113.570378 62.0107446,100.560132 C54.5387218,93.0795034 48.2278799,84.3564574 43.973389,74.6511174 L43.973389,74.6511222 Z M72.7736311,2.97182436 C79.6842753,-2.51092659 89.0960147,2.45012731 96.1670569,5.07383594 C103.200031,11.0911494 104.142485,21.1031569 106.00108,29.650836 C109.108427,49.7162617 107.851536,71.2719196 98.4660651,89.5879357 C96.2232443,96.0083188 89.7774759,99.4862911 85.6461217,92.5448496 C80.8451105,87.2499469 77.1741179,81.0887218 73.7097314,74.8858268 C71.6608241,68.9502492 78.3675802,64.7663382 79.7721772,59.3391407 C82.5088848,53.9282519 83.2048395,47.842241 83.5120449,41.9202587 C84.8015588,33.0611193 83.5328919,23.8706715 81.2030527,15.2926273 C79.5691825,10.5460698 76.9158434,5.94876405 72.7736311,2.97181955 L72.7736311,2.97182436 Z M92.6365183,97.7382502 C106.240328,82.369188 108.397057,60.5452956 107.373069,40.8971737 C106.749606,29.3127419 104.987955,17.3412705 98.8793014,7.25286739 C105.191843,7.4483417 111.981065,13.3777532 116.927078,17.7443402 C130.945012,35.567747 135.067271,61.6417891 124.41043,82.120888 C120.218364,90.4016964 114.540163,97.8759956 107.874184,104.32175 C102.293825,103.863222 96.637369,101.751779 92.6365183,97.7382502 L92.6365183,97.7382502 Z M108.149675,104.410564 C122.80012,90.2902294 133.40986,69.9959916 130.243612,49.1870394 C128.983099,39.440918 125.424482,30.0261866 120.095127,21.78117 C129.855766,27.8634591 135.282973,38.6362144 140.164625,48.6442312 C147.182207,66.135614 143.36713,87.4547473 130.826304,101.434628 C124.385957,105.087492 115.298639,105.646618 108.149675,104.410564 Z M132.268949,101.144629 C137.294724,92.3654151 142.997398,83.4656768 143.521189,73.0498839 C144.302318,69.5673686 143.090741,79.8825861 142.670258,82.0529253 C141.333629,89.7175171 139.588282,97.8977502 134.838031,104.151396 C133.745149,103.545154 134.232697,100.592769 132.268949,101.144629 L132.268949,101.144629 Z" id="Shape"></path>
        </g>
    </g>
</svg>