<svg width="43px" height="43px" viewBox="0 0 43 43" version="1.1" xmlns="http://www.w3.org/2000/svg" xmlns:xlink="http://www.w3.org/1999/xlink">
    <g stroke="none" stroke-width="1" fill="none" fill-rule="evenodd">
        <g transform="translate(-334.000000, -215.000000)">
            <g transform="translate(334.000000, 215.000000)" stroke="#353535" stroke-linejoin="round">
                <line x1="13.094751" y1="41.0263214" x2="24.2789617" y2="31.1579002" id="svg_27"></line>
                <line x1="24.2789617" y1="31.1579002" x2="30.8579091" y2="41.0263214" id="svg_29"></line>
                <line x1="30.2000144" y1="40.3684267" x2="31.5158039" y2="41.6842162" id="svg_31"></line>
                <line x1="31.5158039" y1="39.7105319" x2="31.5158039" y2="26.552637" id="svg_33"></line>
                <line x1="12.4368563" y1="39.7105319" x2="15.0684352" y2="27.2105318" id="svg_40"></line>
                <line x1="14.410538" y1="27.8684271" x2="4.93685422" y2="23.9210589" id="svg_42"></line>
                <line x1="31.5158039" y1="26.552637" x2="42.0421198" y2="23.2631633" id="svg_44"></line>
                <line x1="3.22632982" y1="21.2894791" x2="19.0158037" y2="21.2894791" id="svg_47"></line>
                <line x1="40.0684355" y1="21.2894791" x2="26.9105406" y2="21.2894791" id="svg_49"></line>
                <line x1="25.5947512" y1="20.3157948" x2="20.9894879" y2="7.15789992" id="svg_51"></line>
                <line x1="19.6736984" y1="5.50000518" x2="17.7000142" y2="19.3157948" id="svg_53"></line>
                <line x1="3.22632982" y1="4.84211043" x2="7.17369829" y2="10.1052684" id="svg_55"></line>
                <line x1="8.48948778" y1="0.236847215" x2="10.463172" y2="7.47368941" id="svg_57"></line>
                <line x1="0.594750838" y1="10.7631631" x2="6.51580354" y2="14.0526369" id="svg_59"></line>
            </g>
        </g>
    </g>
</svg>