<?xml version="1.0" encoding="UTF-8"?>
<svg width="45px" height="44px" viewBox="0 0 45 44" version="1.1" xmlns="http://www.w3.org/2000/svg" xmlns:xlink="http://www.w3.org/1999/xlink">
    <title>star</title>
    <g id="Page-1" stroke="none" stroke-width="1" fill="none" fill-rule="evenodd">
        <g id="star" transform="translate(1.000000, 1.000000)">
            <g id="Group" stroke-linejoin="round">
                <line x1="13.094751" y1="41.0263214" x2="24.2789617" y2="31.1579002" id="Path" stroke="#353535"></line>
                <line x1="24.2789617" y1="31.1579002" x2="30.8579091" y2="41.0263214" id="Path" stroke="#353535"></line>
                <line x1="30.2000144" y1="40.3684267" x2="31.5158039" y2="41.6842162" id="Path" stroke="#353535"></line>
                <line x1="31.5158039" y1="39.7105319" x2="31.5158039" y2="26.552637" id="Path" stroke="#353535"></line>
                <line x1="12.4368563" y1="39.7105319" x2="15.0684352" y2="27.2105318" id="Path" stroke="#353535"></line>
                <line x1="14.410538" y1="27.8684271" x2="4.93685422" y2="23.9210589" id="Path" stroke="#353535"></line>
                <line x1="31.5158039" y1="26.552637" x2="42.0421198" y2="23.2631633" id="Path" stroke="#353535"></line>
                <line x1="3.22632982" y1="21.2894791" x2="19.0158037" y2="21.2894791" id="Path" stroke="#353535"></line>
                <line x1="40.0684355" y1="21.2894791" x2="26.9105406" y2="21.2894791" id="Path" stroke="#353535"></line>
                <line x1="25.5947512" y1="20.3157948" x2="20.9894879" y2="7.15789992" id="Path" stroke="#353535"></line>
                <line x1="19.6736984" y1="5.50000518" x2="17.7000142" y2="19.3157948" id="Path" stroke="#353535"></line>
                <g id="Path">
                    <line x1="3.22632982" y1="4.84211043" x2="7.17369829" y2="10.1052684" stroke="#353535"></line>
                    <line x1="8.48948778" y1="0.236847215" x2="10.463172" y2="7.47368941" stroke="#353535"></line>
                    <line x1="0.594750838" y1="10.7631631" x2="6.51580354" y2="14.0526369" stroke="#353535"></line>
                    <path d="M2.06179167,10.2974983 C3.5701899,11.2169345 5.07858813,12.1363706 6.58698637,13.0558068" stroke="#FFFFFF"></path>
                    <path d="M4.35558584,5.11729766 C5.54853538,6.63146837 6.74148492,8.14563907 7.93443446,9.65980977" stroke="#FFFFFF"></path>
                    <path d="M9.40081248,1.05177861 C10.1413869,3.0768981 10.8819612,5.10201759 11.6225356,7.12713707" stroke="#FFFFFF"></path>
                </g>
            </g>
            <polygon id="Path" stroke="#E5A651" fill="#E5A651" fill-rule="nonzero" points="18.6868563 19.0482133 20.1566485 7.47368941 24.6640263 20.3157948 25.5947512 21.6069948 26.9105406 22.3117235 39.7908098 22.3117235 30.8579091 26.130839 30.8579091 39.7105318 24.2789617 30.2948257 13.3867011 39.9576949 15.8905326 26.9323315 14.410538 26.9323315 5.20001405 23.2631633 4.05527719 21.8955965 19.0158037 22.3955965 19.6736984 21.6069948 19.3847587 21"></polygon>
        </g>
    </g>
</svg>