<svg width="36px" height="36px" viewBox="0 0 36 36" version="1.1" xmlns="http://www.w3.org/2000/svg" xmlns:xlink="http://www.w3.org/1999/xlink">
    <g stroke="none" stroke-width="1" fill="none" fill-rule="evenodd">
        <g fill="#323232" fill-rule="nonzero">
            <path d="M18,0 C13.111,0 12.499,0.02 10.579,0.108 C8.663,0.196 7.354,0.5 6.209,0.945 C5.0080117,1.3969369 3.92005727,2.10540409 3.021,3.021 C2.10557893,3.92020035 1.39713847,5.00811374 0.945,6.209 C0.5,7.354 0.195,8.663 0.108,10.58 C0.021,12.499 0,13.11 0,18 C0,22.89 0.02,23.501 0.108,25.421 C0.196,27.337 0.5,28.646 0.945,29.791 C1.3969369,30.9919883 2.10540409,32.0799427 3.021,32.979 C4.021,33.979 5.026,34.595 6.209,35.055 C7.354,35.5 8.663,35.805 10.579,35.892 C12.499,35.979 13.111,36 18,36 C22.889,36 23.501,35.98 25.421,35.892 C27.337,35.804 28.646,35.5 29.791,35.055 C30.9919737,34.6030343 32.0799223,33.8945709 32.979,32.979 C33.979,31.979 34.595,30.974 35.055,29.791 C35.5,28.646 35.805,27.337 35.892,25.421 C35.979,23.501 36,22.889 36,18 C36,13.111 35.98,12.499 35.892,10.579 C35.804,8.663 35.5,7.354 35.055,6.209 C34.6030343,5.00802629 33.8945709,3.92007773 32.979,3.021 C32.0797996,2.10557893 30.9918863,1.39713847 29.791,0.945 C28.646,0.5 27.337,0.195 25.42,0.108 C23.501,0.021 22.89,0 18,0 Z M18,2 C23.2108152,2 23.828827,2.02060039 25.8866978,2.11384428 C27.7895236,2.20058277 28.822796,2.51826252 29.5101985,2.78606763 C30.4209528,3.139527 31.0714915,3.56346141 31.7545572,4.24544284 C32.4376228,4.9285085 32.860473,5.57904723 33.2139324,6.48980145 C33.4817375,7.17720404 33.7994172,8.21047638 33.8861557,10.1133022 C33.9793996,12.171173 34,12.7891848 34,18 C34,23.2108152 33.9793996,23.828827 33.8861557,25.8866978 C33.7994172,27.7895236 33.4817375,28.822796 33.2139324,29.5101985 C32.9013067,30.3579765 32.4026234,31.1248966 31.7545572,31.7545572 C31.0714915,32.4376228 30.4209528,32.860473 29.5101985,33.2139324 C28.822796,33.4817375 27.7895236,33.7994172 25.8866978,33.8861557 C23.828827,33.9793996 23.2118994,34 18,34 C12.7881006,34 12.171173,33.9793996 10.1133022,33.8861557 C8.21047638,33.7994172 7.17720404,33.4817375 6.48980145,33.2139324 C5.64202347,32.9013067 4.87510339,32.4026234 4.24544284,31.7545572 C3.59740517,31.1248731 3.09872636,30.3579599 2.78606763,29.5101985 C2.51826252,28.822796 2.20058277,27.7895236 2.11384428,25.8866978 C2.02060039,23.828827 2,23.2108152 2,18 C2,12.7891848 2.02060039,12.171173 2.11384428,10.1133022 C2.20058277,8.21047638 2.51826252,7.17720404 2.78606763,6.48980145 C3.139527,5.57904723 3.56346141,4.9285085 4.24544284,4.24544284 C4.9285085,3.56237718 5.57904723,3.139527 6.48980145,2.78606763 C7.17720404,2.51826252 8.21047638,2.20058277 10.1133022,2.11384428 C12.171173,2.02060039 12.7891848,2 18,2 L18,2 Z" id="Shape"></path>
            <path d="M18,25 C15.499141,25 13.1882518,23.6658076 11.9378222,21.5 C10.6873926,19.3341925 10.6873926,16.6658075 11.9378222,14.5 C13.1882518,12.3341924 15.499141,11 18,11 C21.8659933,11 25,14.1340068 25,18 C25,21.8659932 21.8659933,25 18,25 Z M18,8.748 C12.8902615,8.748 8.748,12.8902615 8.748,18 C8.748,23.1097385 12.8902615,27.252 18,27.252 C23.1097385,27.252 27.252,23.1097385 27.252,18 C27.252,12.8902615 23.1097385,8.748 18,8.748 L18,8.748 Z M28.94,8.078 C28.94,9.0085998 28.1855998,9.763 27.255,9.763 C26.3244002,9.763 25.57,9.0085998 25.57,8.078 C25.57,7.1474002 26.3244002,6.393 27.255,6.393 C28.1855998,6.393 28.94,7.1474002 28.94,8.078" id="Shape"></path>
        </g>
    </g>
</svg>