<svg width="47px" height="47px" viewBox="0 0 47 47" version="1.1" xmlns="http://www.w3.org/2000/svg" xmlns:xlink="http://www.w3.org/1999/xlink">
    <g stroke="none" stroke-width="1" fill="none" fill-rule="evenodd">
        <g transform="translate(-112.000000, -109.000000)" fill-rule="nonzero">
            <g transform="translate(113.000000, 110.000000)" fill="none" stroke="#323232" stroke-linejoin="round" stroke-width="2">
                <path d="M41.3335128,0.748660675 L4.03594229,0.748660675 C2.16428239,0.748660675 0.645254057,2.267689 0.645254057,4.13934891 L0.645254057,41.4369195 C0.645254057,43.3085794 2.16428239,44.8276077 4.03594229,44.8276077 L41.3335128,44.8276077 C43.2051727,44.8276077 44.7242011,43.3085794 44.7242011,41.4369195 L44.7242011,4.13934891 C44.7242011,2.267689 43.2051727,0.748660675 41.3335128,0.748660675 Z M14.1554513,40.8537211 L7.37407485,40.8537211 L7.37407485,17.1189035 L14.1554513,17.1189035 L14.1554513,40.8537211 Z M10.7647631,14.5758873 C8.42010217,14.5758873 6.5264028,12.6787972 6.5264028,10.337527 C6.5264028,7.99625677 8.42010217,6.0991667 10.7647631,6.0991667 C13.109424,6.0991667 15.0031234,7.99625677 15.0031234,10.337527 C15.0031234,12.6787972 13.109424,14.5758873 10.7647631,14.5758873 Z M37.8902689,40.8537211 L31.1088925,40.8537211 L31.1088925,26.4432961 C31.1088925,25.7651585 30.4256688,24.6547081 29.9441911,24.3868437 C29.308437,24.0291261 27.8063621,23.9986099 27.1214431,24.329202 L24.327516,25.6736099 L24.327516,40.8537211 L17.5461396,40.8537211 L17.5461396,17.1189035 L24.327516,17.1189035 L24.327516,18.1598447 C27.0112457,16.934111 30.7359168,17.0544804 33.2619795,18.4717881 C35.9440139,19.973863 37.8902689,23.3272536 37.8902689,26.4432961 L37.8902689,40.8537211 Z"></path>
            </g>
        </g>
    </g>
</svg>