<svg width="81px" height="69px" viewBox="0 0 81 69" version="1.1" xmlns="http://www.w3.org/2000/svg" xmlns:xlink="http://www.w3.org/1999/xlink">
    <g stroke="none" stroke-width="1" fill="none" fill-rule="evenodd">
        <g transform="translate(-131.000000, -229.000000)" fill-rule="nonzero">
            <g transform="translate(132.000000, 230.000000)" fill="none" stroke="#81888F" stroke-linejoin="round" stroke-width="2">
                <path d="M72.4183809,32.1037795 C69.2094799,31.5290258 65.8696579,31.1505988 63.1577224,31.0481675 L62.6794599,31.0310956 C62.7890061,30.7750172 62.8718336,30.601453 62.8985522,30.5758451 C62.9573331,30.5246294 63.0054265,30.3083855 63.0107702,30.0978321 C63.0107702,29.9811742 63.0588637,29.6027473 63.1336757,29.1019717 C63.8684365,29.1304249 64.8436646,29.1531874 65.9070639,29.1617234 C70.013709,29.1958672 74.3100561,29.5486863 77.257115,30.1035228 C79.0125255,30.4335794 79.5923186,30.4221981 78.2964676,30.0864509 C76.9845855,29.7478583 73.0943609,29.2499281 69.995006,29.0336842 C67.913629,28.8828825 64.929164,28.8259761 63.1710817,28.8572746 C63.221847,28.5329087 63.2806279,28.1715536 63.3420806,27.8016626 C63.5905633,26.370469 63.6733909,24.9307394 63.6787346,22.0655068 C63.6840784,17.6211241 63.4596423,16.3976385 62.0996668,13.4584277 C61.5465923,12.2577046 60.9213776,11.2390817 60.1652419,10.3171995 C60.8251907,8.24296455 60.8091596,5.03060347 60.125164,2.21374122 C59.5614021,-0.0966548837 59.3636846,-0.244611284 57.3971974,0.199257918 C55.7299583,0.577684866 54.3940295,1.09268695 52.6813687,2.01172383 C51.8717959,2.44705708 50.7549594,3.12424215 49.9453865,3.65631613 C47.834619,2.86531845 45.6517114,2.34178041 43.3218515,2.06009419 C40.9599294,1.77556265 35.1700139,1.93490031 33.1153554,2.3389351 C31.1061185,2.73443394 29.2972709,3.21813756 27.6594222,3.79289127 C26.8418338,3.25512666 25.655529,2.52957123 24.8085501,2.07432077 C23.0878738,1.15243858 21.751945,0.640281805 20.0793622,0.261854857 C18.1182187,-0.184859661 17.9151575,-0.0340579449 17.3540674,2.27633816 C16.6593844,5.1301895 16.6540407,8.39661158 17.3407081,10.4651559 C17.4208638,10.7013171 17.4689573,10.8691907 17.4876603,11.0000752 C14.7035847,14.733129 13.7951531,18.910052 14.3989929,24.7401032 C14.5566325,26.2595017 14.7997715,27.6537062 15.1390974,28.9312528 C13.3623121,28.9198716 10.8347348,28.9881591 9.00985609,29.113353 C5.90515755,29.3324423 2.01493287,29.8246819 0.703050781,30.1632744 C-0.590128302,30.4990216 -0.0156789157,30.5104029 1.74240339,30.1831916 C4.68946234,29.6312004 8.98848123,29.2726907 13.0924545,29.2413922 C13.8672932,29.2385469 14.5913666,29.221475 15.2139095,29.2044031 C15.4009395,29.8787428 15.6146881,30.5217841 15.8578271,31.1335269 L15.8391241,31.1363723 C13.1271887,31.2359583 9.79003851,31.6143852 6.58113752,32.189139 C4.17379382,32.6187816 0.620223195,33.4780668 0.206085266,33.7256093 C-0.229427525,33.984533 0.125929538,33.9276267 1.99088615,33.4240058 C5.39216089,32.5078143 9.81408523,31.8050214 15.2913933,31.3156271 L15.9032487,31.2587208 C17.0788661,34.1666332 18.8903855,36.3859792 21.4500251,38.1159309 C23.0157337,39.1772336 25.524608,40.2669894 26.7883966,40.4377083 C27.1357381,40.4832333 28.1457003,40.7051679 29.032757,40.9271025 C29.9224856,41.1490371 31.6618649,41.481939 32.8962631,41.6725752 L32.9256536,41.6725752 C32.9016068,41.6896471 32.880232,41.7010283 32.8588571,41.7181002 C31.3626169,42.546087 30.3900607,43.8350149 29.7354556,45.8637248 C29.4415512,45.9576202 29.0755067,46.0856594 28.6800718,46.2307704 C27.2666591,46.7429272 26.7162565,46.8482039 25.2841408,46.8595851 C23.798588,46.8709664 23.4459028,46.8026788 22.558846,46.3588096 C21.2683388,45.7186137 20.0660029,44.5406531 19.2644456,43.1350673 C17.9258449,40.7848368 15.6120162,39.1231726 13.6829351,39.1231726 C12.0343989,39.1231726 11.7217916,39.8345014 12.9134401,40.8730415 C14.7089284,42.4351197 16.0502009,44.0284963 16.6006036,45.2462913 C16.910539,45.929167 17.3861297,46.984779 17.661331,47.5908312 C17.9525635,48.2367178 18.5751063,49.1130749 19.1682587,49.7191271 C20.5629684,51.1360942 21.9095846,51.8132793 23.9188216,52.1319546 C25.2654378,52.3425079 25.5967481,52.3425079 27.1865034,52.126264 C27.9533265,52.0266779 28.5999161,51.91002 29.1797092,51.7649089 C29.1797092,52.4591659 29.1797092,53.2586995 29.1797092,54.1976536 C29.1797092,59.2224806 29.1236002,60.8386197 28.9365701,61.3109421 C28.5838849,62.2100617 27.7930151,63.1347892 27.0235201,63.5502053 C26.256697,63.9656213 26.0189016,64.4237171 26.3421964,64.8448238 C26.5212109,65.072449 26.8658805,65.1122834 28.0227948,65.0326146 C30.2190618,64.8875035 31.7714111,64.0225276 32.5622809,62.4974386 C32.8161074,62.0080443 32.8748883,61.0235652 32.955044,55.9019975 C33.0405434,50.3450965 33.0779494,49.8101772 33.4172754,49.0163342 C33.6230084,48.5440119 33.9195846,48.0318551 34.0852398,47.8924346 C34.363113,47.6477375 34.381816,48.1314411 34.381816,54.7780979 C34.3791441,62.113321 34.3096758,62.9982141 33.6203365,64.4094905 C33.4653688,64.7310112 33.1714645,65.1492725 32.9657314,65.3484446 C32.6050306,65.6984184 32.4527348,66.5946928 32.7038894,66.8649977 C33.1180273,67.3031763 35.1940607,66.61461 36.3269283,65.6642746 C38.2560095,64.0367542 38.4857892,62.69092 38.5018204,52.9713226 L38.509836,47.2693106 L39.0949728,47.3290622 L39.6801096,47.3859685 L39.7762965,54.8435402 C39.8858426,63.2400659 39.9018738,63.3624145 41.2431463,64.9842442 C42.0046257,65.9004358 42.7714489,66.4069019 44.0192064,66.8024008 C45.6891174,67.3373201 46.1914266,66.5121786 45.0692464,65.080985 C43.8482075,63.5245974 43.7894266,62.9299265 43.856223,53.7167953 C43.9016446,47.8099205 43.9016446,47.8099205 44.2596735,48.1542037 C45.0131374,48.8826044 45.1574177,50.0776369 45.1574177,55.6174659 C45.1574177,62.4974386 45.3417759,63.1518611 47.6235423,64.3525842 C48.6896135,64.9074207 48.9888615,64.9757083 50.3541807,64.9813989 C51.8076713,64.9870896 51.8958426,64.964327 51.9492797,64.5602922 C51.9947013,64.233081 51.8156869,64.0111464 51.137035,63.5701225 C50.2473064,62.9868328 49.6301073,62.2413602 49.242688,61.3024061 C49.0957358,60.9410511 48.9968771,58.5737486 48.9300806,53.6997234 C48.8338938,46.8908836 48.8125189,46.5807442 48.4144121,45.513751 C47.8773687,44.079712 47.0571085,42.9472765 46.0177558,42.1961132 C45.7478982,42.0083224 45.4780406,41.85183 45.1280273,41.7351721 C45.5581963,41.6896471 45.9750061,41.6412767 46.3784566,41.5786798 C50.5786168,40.9840089 52.7989305,40.488924 54.5810595,39.7548326 C58.3510506,38.2098263 60.9000027,35.6433518 62.2813531,32.0041935 C62.4042586,31.6798275 62.527164,31.3725334 62.6313665,31.124991 L63.6947658,31.2188864 C69.1747458,31.711126 73.5966701,32.4139189 76.9979448,33.3329557 C78.8629014,33.8365766 79.2182585,33.8963282 78.7827457,33.6317139 C78.3766234,33.389862 74.8230527,32.5334221 72.4183809,32.1037795 Z M56.3498292,32.0155747 C55.7272864,33.4723762 53.990579,35.3445937 52.5878537,36.0786851 C51.2038315,36.8070858 49.0342831,37.3619223 46.5761741,37.6265367 C44.8955756,37.8086369 35.5226992,37.8626979 33.9756936,37.7005149 C28.8537426,37.1655956 25.9841675,36.1156742 23.8680563,34.0129861 C21.8641631,32.0155747 20.9290129,29.3039891 21.0919962,25.9664342 C21.1961986,23.8779727 21.6691174,22.5662823 22.9061875,20.9729056 C24.0310396,19.5217948 25.2146725,18.6255204 26.6093822,18.17027 C27.7769839,17.7889977 31.359945,17.7548539 36.1773043,18.0849105 C38.3067748,18.2300216 40.0675289,18.2300216 42.1943276,18.0849105 C47.2334511,17.746318 50.5973198,17.7833071 51.8397336,18.1930325 C53.7928615,18.8360738 55.5723187,20.5660255 56.6410617,22.870731 C57.1219961,23.9007352 57.2155111,24.3389138 57.2849794,25.9294451 C57.3811663,28.1203379 57.0258092,30.4478059 56.3498292,32.0155747 Z M30.9404634,22.608962 C28.0735601,22.0740427 26.4357114,27.3008871 28.6346502,29.9697929 C29.6793466,31.2359583 30.6064812,31.4436663 31.7660674,30.6754312 C32.8401541,29.961257 33.4226191,28.6268041 33.4226191,26.8968523 C33.4226191,24.5893015 32.4367036,22.8934935 30.9404634,22.608962 Z M48.342272,22.9219467 C45.4753688,22.3870274 43.8348482,27.6081812 46.033787,30.2799323 C47.0811552,31.5460977 48.0056179,31.756651 49.167876,30.9827252 C50.2392909,30.2713964 50.8244277,28.9340981 50.8244277,27.2041464 C50.8244277,24.9051315 49.8385122,23.2036329 48.342272,22.9219467 Z M40.6312909,33.1992259 C40.5698382,33.4097793 40.2705901,33.722764 39.9686702,33.8906376 C39.2045189,34.3088989 38.6541163,34.1637878 37.8472153,33.3813261 C37.3475779,32.9004678 37.12047,32.6472347 36.9681741,33.1508556 C36.8265657,33.6174873 37.7162943,34.553596 38.4029617,34.8409729 C39.0335201,35.1084326 39.485064,35.1169685 40.1690595,34.8125197 C40.8477114,34.5109163 41.4408638,33.7000014 41.4408638,33.1736181 C41.4408638,32.6842238 40.7809149,32.7069864 40.6312909,33.1992259 Z M39.784312,31.5631696 C40.2198248,31.1534441 40.3186836,30.3112308 39.9018738,29.8645163 C39.485064,29.4178018 38.6380851,29.4860893 38.3067748,29.9868648 C37.9220273,30.5729998 38.1277603,31.0197143 38.4029617,31.494882 C38.8304589,31.8477011 39.4049083,31.918834 39.784312,31.5631696 Z"></path>
            </g>
        </g>
    </g>
</svg>